<svg width="206" height="46" viewBox="0 0 206 46" fill="none" xmlns="http://www.w3.org/2000/svg">
<rect x="12" y="7.5" width="13" height="21" fill="white"/>
<path d="M11.9521 3.14895L0.546052 9.84347C0.379961 9.9411 0.242081 10.0813 0.14624 10.2501C0.0503995 10.4189 -2.87196e-05 10.6102 1.22708e-08 10.805V24.1959C6.19633e-05 24.3906 0.0505292 24.5819 0.146361 24.7507C0.242192 24.9195 0.380022 25.0597 0.546052 25.1574L11.9521 31.851C12.1187 31.9486 12.3077 32 12.5 32C12.6923 32 12.8813 31.9486 13.0478 31.851L24.4539 25.1574C24.62 25.0597 24.7578 24.9195 24.8536 24.7507C24.9495 24.5819 24.9999 24.3906 25 24.1959V10.805C25 10.6102 24.9496 10.4189 24.8537 10.2501C24.7579 10.0813 24.62 9.9411 24.4539 9.84347L13.0478 3.14895C12.8813 3.05136 12.6923 3 12.5 3C12.3077 3 12.1187 3.05136 11.9521 3.14895ZM10.093 25.4709L11.4474 19.615C11.4571 19.5726 11.4559 19.5285 11.4437 19.4868C11.4316 19.4451 11.4091 19.4073 11.3783 19.3771L8.09563 16.1278C8.0714 16.1043 8.0521 16.0759 8.03893 16.0446C8.02576 16.0133 8.01898 15.9796 8.01898 15.9456C8.01898 15.9115 8.02576 15.8778 8.03893 15.8464C8.0521 15.8151 8.0714 15.7868 8.09563 15.7633L14.5145 9.28931C14.5526 9.25044 14.6022 9.22531 14.6557 9.2177C14.7093 9.21009 14.7638 9.22043 14.8109 9.24716C14.8581 9.2739 14.8954 9.31554 14.9171 9.36577C14.9388 9.41599 14.9438 9.47206 14.9312 9.5254L13.575 15.395C13.5649 15.4374 13.5658 15.4818 13.5778 15.5237C13.5898 15.5656 13.6124 15.6035 13.6433 15.6338L16.9071 18.8649C16.9305 18.8884 16.9491 18.9165 16.9618 18.9474C16.9745 18.9783 16.981 19.0114 16.981 19.0449C16.981 19.0784 16.9745 19.1115 16.9618 19.1424C16.9491 19.1733 16.9305 19.2013 16.9071 19.2249L10.5107 25.7043C10.4725 25.7424 10.4232 25.767 10.3702 25.7744C10.3171 25.7818 10.2631 25.7717 10.2162 25.7454C10.1693 25.7192 10.132 25.6784 10.1098 25.6289C10.0876 25.5795 10.0817 25.5241 10.093 25.4709Z" fill="url(#paint0_linear_365_176875)"/>
<path fill-rule="evenodd" clip-rule="evenodd" d="M45.1346 10.2765H42.7354V12.7307H45.1346V10.2765ZM34.4889 10.2765H32V24.6995H40.8334V22.3079H34.4862V10.2765H34.4889ZM42.7408 14.6298H45.14V24.6941H42.7408V14.6271V14.6298ZM54.4788 15.4324C54.1663 15.1685 53.8212 14.9509 53.4517 14.7822C52.949 14.5591 52.4056 14.4475 51.8595 14.4557C51.1965 14.4529 50.5389 14.589 49.933 14.8611C49.3488 15.1195 48.819 15.4896 48.3734 15.9521C47.9278 16.4174 47.5773 16.967 47.3355 17.5683C47.0855 18.1886 46.9578 18.8552 46.9605 19.5273C46.9578 20.2075 47.08 20.8822 47.3246 21.5134C47.5555 22.1175 47.8979 22.6725 48.3326 23.1486C48.7701 23.6221 49.2999 23.9975 49.8868 24.2533C50.5118 24.5254 51.1829 24.6641 51.8622 24.6587C52.4056 24.6669 52.9463 24.5607 53.4517 24.354C53.8212 24.1962 54.169 23.9894 54.4815 23.7336V24.3159C54.4815 25.0967 54.2641 25.6899 53.8457 26.0817C53.43 26.4762 52.8702 26.683 52.21 26.683C51.5986 26.683 51.0932 26.5714 50.7047 26.3565C50.3161 26.1334 50.0064 25.7878 49.8243 25.3715L49.7863 25.2872H47.2784L48.0283 27.2135L48.0582 27.2625C48.588 27.8203 49.2374 28.2502 49.952 28.5141C50.6612 28.7807 51.4111 28.9168 52.1692 28.9168C53.6473 28.9168 54.813 28.5059 55.6336 27.6978C56.4568 26.8898 56.878 25.8096 56.878 24.4927V14.6325H54.4788V15.427V15.4324ZM53.8783 17.5519C54.1337 17.8104 54.332 18.1179 54.4652 18.458C54.5983 18.7981 54.6608 19.1627 54.65 19.5273C54.6608 20.2673 54.3891 20.9802 53.8919 21.5162C53.6555 21.7855 53.3647 21.9977 53.0414 22.1419C52.7181 22.2834 52.3648 22.3542 52.0116 22.3433C51.6584 22.3542 51.3106 22.2861 50.9873 22.1419C50.6639 22.0005 50.3759 21.7855 50.1395 21.5162C49.6477 20.9774 49.3787 20.2619 49.3923 19.5245C49.3923 18.7301 49.6423 18.0635 50.1395 17.5465C50.3813 17.2907 50.6748 17.0894 50.9954 16.9561C51.3188 16.8228 51.6638 16.7575 52.0116 16.7656C52.3594 16.7602 52.7018 16.8282 53.0224 16.9643C53.343 17.1003 53.6337 17.2989 53.8756 17.5519H53.8783ZM62.3693 14.8529C62.8774 14.5808 63.4453 14.4448 64.0186 14.4529C65.1788 14.4529 66.1271 14.8257 66.8444 15.5576C67.559 16.2895 67.9231 17.3288 67.9231 18.643V24.6968H65.5239V18.9205C65.5375 18.36 65.3527 17.8159 65.0022 17.386C64.6571 16.9724 64.1708 16.7711 63.5186 16.7711C62.8665 16.7711 62.3666 16.9779 61.9916 17.3996C61.6167 17.8213 61.4346 18.3927 61.4346 19.0974V24.6995H59.0354V10.2765H61.4346V15.544C61.7145 15.2719 62.0297 15.0406 62.372 14.8583L62.3693 14.8529ZM73.2921 11.2859L71.0858 12.1131L71.113 14.6271H68.9665V16.7847H70.8984V21.3502C70.8984 22.4494 71.2298 23.2983 71.8874 23.8751C72.5449 24.4519 73.3492 24.7349 74.3002 24.7349C74.5447 24.7349 74.7703 24.7322 74.9768 24.724C75.186 24.7185 75.3544 24.7077 75.4849 24.6941L75.6126 24.6805V22.561H74.6263C74.4496 22.5691 74.273 22.5419 74.1073 22.4793C73.9415 22.4167 73.7894 22.3215 73.6617 22.1991C73.4171 21.9597 73.2949 21.5978 73.2949 21.1162V16.7874H75.9223V14.6298H73.2949V11.2914L73.2921 11.2859ZM89.2525 10.2656H91.6517V12.728H89.2525V10.2711V10.2656ZM91.6517 14.6189H89.2525V24.6913H91.6517V14.6244V14.6189ZM112.275 15.4216V14.6189H114.674V24.4982C114.674 25.815 114.256 26.8952 113.43 27.7033C112.606 28.5141 111.441 28.9195 109.965 28.9195C109.21 28.9195 108.46 28.7834 107.748 28.5195C107.031 28.2529 106.384 27.8257 105.851 27.2679L105.822 27.219L105.074 25.2926H107.582L107.62 25.377C107.802 25.7933 108.109 26.1388 108.501 26.3619C108.886 26.5796 109.392 26.6884 110.006 26.6884C110.669 26.6884 111.22 26.4871 111.642 26.0898C112.063 25.6926 112.277 25.1022 112.277 24.324V23.7391C111.965 23.9948 111.617 24.2043 111.248 24.3594C110.742 24.5662 110.202 24.6696 109.658 24.6641C108.979 24.6696 108.308 24.5335 107.683 24.2587C107.099 24.003 106.569 23.6275 106.131 23.1541C105.697 22.6779 105.357 22.1229 105.126 21.5189C104.881 20.8877 104.756 20.2129 104.759 19.5327C104.759 18.8607 104.884 18.1941 105.134 17.5737C105.373 16.9697 105.726 16.4201 106.172 15.9576C106.618 15.495 107.148 15.125 107.732 14.8665C108.34 14.5971 108.995 14.4584 109.658 14.4611C110.204 14.4557 110.748 14.5672 111.25 14.7876C111.617 14.9563 111.962 15.174 112.272 15.4352L112.277 15.427L112.275 15.4216ZM111.688 21.5053C112.185 20.9693 112.457 20.2537 112.446 19.5164C112.457 19.1491 112.394 18.7872 112.261 18.4444C112.128 18.1043 111.93 17.7968 111.674 17.5383C111.43 17.2853 111.139 17.0867 110.818 16.9534C110.498 16.82 110.153 16.752 109.808 16.7575C109.46 16.7493 109.112 16.8119 108.791 16.9479C108.468 17.0812 108.177 17.2826 107.935 17.5383C107.441 18.058 107.191 18.7219 107.191 19.5164C107.18 20.2537 107.446 20.9666 107.938 21.508C108.172 21.7774 108.46 21.9896 108.783 22.1338C109.107 22.2753 109.457 22.346 109.808 22.3351C110.161 22.346 110.509 22.278 110.835 22.1338C111.158 21.9923 111.449 21.7801 111.685 21.5134L111.691 21.5053H111.688ZM96.5996 17.0704H94.2004V24.7838H96.5996V17.0758V17.0704ZM96.5996 17.0704V14.6162H98.9989C100.083 14.6162 101.124 15.057 101.89 15.8406C102.656 16.6241 103.088 17.688 103.088 18.7981V24.7784H100.689V19.3586C100.689 18.7545 100.455 18.1723 100.037 17.7451C99.6184 17.318 99.0505 17.0758 98.4609 17.0758L96.6023 17.0704H96.5996ZM80.373 17.0704H77.9737V24.7838H80.373V17.0758V17.0704ZM80.373 17.0704V14.6162H82.7722C83.8563 14.6162 84.897 15.057 85.6632 15.8406C86.4294 16.6241 86.8615 17.688 86.8615 18.7981V24.7784H84.4622V19.3586C84.4622 18.7545 84.2286 18.1723 83.8101 17.7451C83.3917 17.318 82.8238 17.0758 82.2342 17.0758L80.3757 17.0704H80.373Z" fill="#292F36"/>
<path d="M126.366 16.9696H128.58L126.292 9.78125H122.744L120.456 16.9696H122.602L122.923 15.8106H126.045L126.366 16.9696ZM123.469 13.8325L124.043 11.7593H124.926L125.499 13.8325H123.469Z" fill="#292F36"/>
<path d="M135.753 11.7593V9.78125H129.583V11.7593H131.678V14.9807H129.583V16.9696H135.753V14.9807H133.658V11.7593H135.753Z" fill="#292F36"/>
<text fill="#5B5E69" xml:space="preserve" style="white-space: pre" font-family="Roboto, Helvetica, sans-serif" font-size="10" letter-spacing="0px"><tspan x="0" y="43.418">from the creators of PyTorch Lightning</tspan></text>
<defs>
<linearGradient id="paint0_linear_365_176875" x1="18.8524" y1="6.73689" x2="-5.56764" y2="48.2142" gradientUnits="userSpaceOnUse">
<stop stop-color="#792EE5"/>
<stop offset="1" stop-color="#3EABB3"/>
</linearGradient>
</defs>
</svg>
